# xmcd CD database file
#
# Track frame offsets:
#	150
#	10955
#	35760
#	54545
#	86642
#	104402
#	124940
#	150527
#	176057
#	200682
#	216955
#	241892
#	269820
#	292597
#	314117
#
# Disc length: 4425 seconds
#
# Revision: 0
# Processed by: cddbd v1.5.1PL2 Copyright (c) Steve Scherf et al.
# Submitted via: CDex 1.50beta10
#
DISCID=e311470f
DTITLE=Various Artist - Soweto Blues
DYEAR=2005
DGENRE=Jazz
TTITLE0=Nancy Jacobs and Her Sisters - Meadowlands
TTITLE1=Voice - Scullery Department
TTITLE2=Eric Nomvete - Pondo Blues
TTITLE3=Winston Mankunku Ngozi - Inhlupeko (Melancholy)
TTITLE4=Sankomota - Madhouse
TTITLE5=Tete's Big Sound - Black Heroes
TTITLE6=Jonas Gwangwa - She-been
TTITLE7=Malopoets - Sound of the People
TTITLE8=Sakhile - Ubuhle Bako
TTITLE9=Pacific Express - Black Fire
TTITLE10=Sabenza - Song for Winnie
TTITLE11=Dedication Orchestra - You ain't gonna know me
TTITLE12=Abstractions with Duke Makasi - On the Other Side
TTITLE13=Zim Ngqawana - Gobbliesation (In a Global Village)
TTITLE14=Mccoy Mrubata - Romeo ans Alek will Never Rhyme Part 1
EXTD=YEAR: 2005
EXTT0=
EXTT1=
EXTT2=
EXTT3=
EXTT4=
EXTT5=
EXTT6=
EXTT7=
EXTT8=
EXTT9=
EXTT10=
EXTT11=
EXTT12=
EXTT13=
EXTT14=
PLAYORDER=
